<svg width="256" height="256" viewBox="0 0 256 256" fill="none" xmlns="http://www.w3.org/2000/svg">
<path d="M146.173 88.68H137.053C135.026 88.68 133.746 87.6667 133.213 85.64C132.893 83.8267 132.626 81.64 132.413 79.08H108.893V161.16L113.533 161.96C114.066 162.067 114.493 162.173 114.813 162.28C115.24 162.387 115.613 162.44 115.933 162.44L116.893 162.6C119.666 163.24 121.053 164.893 121.053 167.56V177H75.2931V167.56C75.2931 164.893 76.6265 163.24 79.2931 162.6L80.2531 162.44C80.5731 162.44 80.8931 162.387 81.2131 162.28C81.6398 162.173 82.1198 162.067 82.6531 161.96L87.2931 161.16V78.92H63.7731C63.5598 81.6933 63.2931 83.9333 62.9731 85.64C62.4398 87.6667 61.2131 88.68 59.2931 88.68H50.0131V61.32H146.173V88.68ZM185.183 178.28C178.036 178.28 172.543 176.253 168.703 172.2C164.863 168.147 162.943 162.6 162.943 155.56V109.8H154.623C153.77 109.8 152.863 109.427 151.903 108.68C151.05 108.04 150.623 107.027 150.623 105.64V97.64L163.903 95.56L168.063 73.16C168.17 72.2 168.65 71.4 169.503 70.76C170.356 70.12 171.37 69.8 172.543 69.8H182.783V95.72H204.383V109.8H182.783V154.28C182.783 156.733 183.423 158.707 184.703 160.2C185.983 161.587 187.69 162.28 189.823 162.28C191.316 162.28 192.33 162.173 192.863 161.96L194.943 161L196.703 160.04C197.023 159.827 197.45 159.72 197.983 159.72C198.836 159.72 199.37 159.827 199.583 160.04L200.703 161.32L206.623 170.92C203.85 173.16 200.543 174.973 196.703 176.36C193.076 177.64 189.236 178.28 185.183 178.28Z" fill="#f1f1f1"/>
</svg>
