<svg width="256" height="256" viewBox="0 0 256 256" fill="none" xmlns="http://www.w3.org/2000/svg">
<path d="M104.636 178.28C97.4896 178.28 91.9963 176.253 88.1562 172.2C84.3163 168.147 82.3963 162.6 82.3963 155.56V109.8H74.0763C73.2229 109.8 72.3163 109.427 71.3563 108.68C70.5029 108.04 70.0763 107.027 70.0763 105.64V97.64L83.3563 95.56L87.5163 73.16C87.6229 72.2 88.1029 71.4 88.9563 70.76C89.8096 70.12 90.8229 69.8 91.9963 69.8H102.236V95.72H123.836V109.8H102.236V154.28C102.236 156.733 102.876 158.707 104.156 160.2C105.436 161.587 107.143 162.28 109.276 162.28C110.77 162.28 111.783 162.173 112.316 161.96L114.396 161L116.156 160.04C116.476 159.827 116.903 159.72 117.436 159.72C118.29 159.72 118.823 159.827 119.036 160.04L120.156 161.32L126.076 170.92C123.303 173.16 119.996 174.973 116.156 176.36C112.53 177.64 108.69 178.28 104.636 178.28ZM164.48 178.28C157.333 178.28 151.84 176.253 148 172.2C144.16 168.147 142.24 162.6 142.24 155.56V109.8H133.92C133.067 109.8 132.16 109.427 131.2 108.68C130.347 108.04 129.92 107.027 129.92 105.64V97.64L143.2 95.56L147.36 73.16C147.467 72.2 147.947 71.4 148.8 70.76C149.653 70.12 150.667 69.8 151.84 69.8H162.08V95.72H183.68V109.8H162.08V154.28C162.08 156.733 162.72 158.707 164 160.2C165.28 161.587 166.987 162.28 169.12 162.28C170.613 162.28 171.627 162.173 172.16 161.96L174.24 161L176 160.04C176.32 159.827 176.747 159.72 177.28 159.72C178.133 159.72 178.667 159.827 178.88 160.04L180 161.32L185.92 170.92C183.147 173.16 179.84 174.973 176 176.36C172.373 177.64 168.533 178.28 164.48 178.28Z" fill="#f1f1f1"/>
</svg>
