<svg width="256" height="256" viewBox="0 0 256 256" fill="none" xmlns="http://www.w3.org/2000/svg">
<path d="M134.008 128.52C135.501 131.613 136.248 135.72 136.248 140.84C136.248 145.747 135.341 150.6 133.528 155.4C131.714 160.093 129.101 164.093 125.688 167.4C122.274 170.813 118.061 173.48 113.048 175.4C108.141 177.32 102.488 178.28 96.0875 178.28H93.6875C83.5542 178.28 72.5142 176.253 60.5675 172.2V142.44H69.6875C71.7142 142.44 72.9408 143.4 73.3675 145.32C73.6875 146.707 74.1675 151.133 74.8075 158.6C79.2875 159.987 86.5942 160.68 96.7275 160.68C102.808 160.68 107.554 159.24 110.968 156.36C114.274 153.48 115.928 149.32 115.928 143.88C115.928 140.893 115.181 138.387 113.688 136.36C112.301 134.44 110.274 132.84 107.608 131.56C104.941 130.173 102.114 129.053 99.1275 128.2L95.6075 127.24L89.3675 125.32C86.1675 124.253 82.9142 122.973 79.6075 121.48C76.6208 120.093 73.7408 118.12 70.9675 115.56C68.4075 113.213 66.4342 110.227 65.0475 106.6C63.4475 102.653 62.6475 98.2267 62.6475 93.32C62.6475 88.9467 63.5008 84.84 65.2075 81C66.8075 76.9467 69.2608 73.3733 72.5675 70.28C75.6608 67.4 79.6075 64.9467 84.4075 62.92C89.1008 61 94.4875 60.04 100.568 60.04C111.768 60.04 122.808 62.2267 133.688 66.6V96.2H124.568C122.648 96.2 121.421 95.1867 120.888 93.16C120.568 91.6667 120.088 87.3467 119.448 80.2C115.608 78.4933 109.368 77.64 100.728 77.64C97.8475 77.64 95.2875 77.96 93.0475 78.6C90.5942 79.4533 88.7275 80.4667 87.4475 81.64C85.8475 83.0267 84.6742 84.5733 83.9275 86.28C83.1808 87.88 82.8075 89.8533 82.8075 92.2C82.8075 94.76 83.6075 97 85.2075 98.92C86.8075 100.84 88.7808 102.387 91.1275 103.56C94.2208 105.053 97.1008 106.227 99.7675 107.08C100.834 107.4 104.088 108.467 109.528 110.28C111.768 111.027 115.021 112.36 119.288 114.28C122.488 115.667 125.368 117.587 127.928 120.04C130.701 122.6 132.728 125.427 134.008 128.52ZM174.949 178.28C167.802 178.28 162.309 176.253 158.469 172.2C154.629 168.147 152.709 162.6 152.709 155.56V109.8H144.389C143.535 109.8 142.629 109.427 141.669 108.68C140.815 108.04 140.389 107.027 140.389 105.64V97.64L153.669 95.56L157.829 73.16C157.935 72.2 158.415 71.4 159.269 70.76C160.122 70.12 161.135 69.8 162.309 69.8H172.549V95.72H194.149V109.8H172.549V154.28C172.549 156.733 173.189 158.707 174.469 160.2C175.749 161.587 177.455 162.28 179.589 162.28C181.082 162.28 182.095 162.173 182.629 161.96L184.709 161L186.469 160.04C186.789 159.827 187.215 159.72 187.749 159.72C188.602 159.72 189.135 159.827 189.349 160.04L190.469 161.32L196.389 170.92C193.615 173.16 190.309 174.973 186.469 176.36C182.842 177.64 179.002 178.28 174.949 178.28Z" fill="#f1f1f1"/>
</svg>
