<svg width="256" height="256" viewBox="0 0 256 256" fill="none" xmlns="http://www.w3.org/2000/svg">
<path fill-rule="evenodd" clip-rule="evenodd" d="M18 55C18 49.1652 20.3179 43.5695 24.4437 39.4437C28.5695 35.3179 34.1652 33 40 33H216C221.835 33 227.431 35.3179 231.556 39.4437C235.682 43.5695 238 49.1652 238 55V201.667C238 207.501 235.682 213.097 231.556 217.223C227.431 221.349 221.835 223.667 216 223.667H40C34.1652 223.667 28.5695 221.349 24.4437 217.223C20.3179 213.097 18 207.501 18 201.667V55ZM102.964 128.333L64.1413 89.5253L74.5253 79.1413L123.703 128.333L74.5253 177.525L64.1413 167.156L102.964 128.333ZM194 179.667H135.333V165H194V179.667Z" fill="#eee"/>
</svg>
