<svg width="256" height="256" viewBox="0 0 256 256" fill="none" xmlns="http://www.w3.org/2000/svg">
<path d="M125.47 88.68H116.35C114.323 88.68 113.043 87.6667 112.51 85.64C112.19 83.8267 111.923 81.64 111.71 79.08H88.19V161.16L92.83 161.96C93.3633 162.067 93.79 162.173 94.11 162.28C94.5367 162.387 94.91 162.44 95.23 162.44L96.19 162.6C98.9633 163.24 100.35 164.893 100.35 167.56V177H54.59V167.56C54.59 164.893 55.9233 163.24 58.59 162.6L59.55 162.44C59.87 162.44 60.19 162.387 60.51 162.28C60.9367 162.173 61.4167 162.067 61.95 161.96L66.59 161.16V78.92H43.07C42.8567 81.6933 42.59 83.9333 42.27 85.64C41.7367 87.6667 40.51 88.68 38.59 88.68H29.31V61.32H125.47V88.68ZM226.72 88.68H217.6C215.573 88.68 214.293 87.6667 213.76 85.64C213.44 83.8267 213.173 81.64 212.96 79.08H189.44V161.16L194.08 161.96C194.613 162.067 195.04 162.173 195.36 162.28C195.787 162.387 196.16 162.44 196.48 162.44L197.44 162.6C200.213 163.24 201.6 164.893 201.6 167.56V177H155.84V167.56C155.84 164.893 157.173 163.24 159.84 162.6L160.8 162.44C161.12 162.44 161.44 162.387 161.76 162.28C162.187 162.173 162.667 162.067 163.2 161.96L167.84 161.16V78.92H144.32C144.107 81.6933 143.84 83.9333 143.52 85.64C142.987 87.6667 141.76 88.68 139.84 88.68H130.56V61.32H226.72V88.68Z" fill="#f1f1f1"/>
</svg>
